<?xml version="1.0" encoding="utf-8"?>
<!-- Generator: Adobe Illustrator 24.0.3, SVG Export Plug-In . SVG Version: 6.00 Build 0)  -->
<svg version="1.1" id="Layer_1" xmlns="http://www.w3.org/2000/svg" xmlns:xlink="http://www.w3.org/1999/xlink" x="0px" y="0px"
	 viewBox="0 0 612 792" style="enable-background:new 0 0 612 792;" xml:space="preserve">
<style type="text/css">
	.st0{fill:#E56025;}
</style>
<path class="st0" d="M397.34,251c-2.63-1.24-5.59-2.48-8.87-3.62c-1.24-0.43-5.13-1.75-10.32-2.92c-4.72-1.06-11.6-2.23-20.25-2.47
	c-2.29-0.02-4.59-0.04-6.88-0.06c-0.82-3.37-2.81-9.36-7.99-14.69c-1.96-2.02-3.96-3.51-5.73-4.61c-2.6-1.92-6.09-4.14-10.48-6.06
	c-4.23-1.84-8.09-2.88-11.18-3.49c-3.22-0.27-6.65-0.45-10.26-0.51c-3.95-0.07-7.68,0.02-11.18,0.21c-5.75,0.54-13.7,1.9-22.56,5.44
	c-9.35,3.73-16.33,8.53-20.96,12.26c-4.78,3.97-10.06,8.87-15.39,14.84c-4.91,5.5-8.92,10.83-12.17,15.67
	c-3.11,4.62-4.52,9.11-5.32,11.12c-1.11,2.79-2.66,6.72-3.76,11.72c-1.41,6.38-1.39,11.28-1.34,16.97
	c0.05,5.12,0.46,12.01,1.94,20.13c0.48,4.08,1.54,9.86,4.02,16.43c2.43,6.45,5.44,11.53,7.99,15.2c2.64,4.62,6.38,10.19,11.61,15.89
	c6.17,6.74,12.42,11.46,17.39,14.66c-0.56-4.07-0.95-8.79-0.92-14.03c0.03-4.98,0.43-9.47,0.99-13.37
	c0.33-2.87,1.17-7.09,3.51-11.62c1.42-2.75,3.06-4.74,6.29-8.6c4.66-5.57,7.64-9.03,12.53-13c2.58-2.09,6.04-4.52,10.42-6.69
	c4.56-2.26,8.75-3.57,12.07-4.36c3.16-0.48,6.4-0.9,9.73-1.25c13.93-1.47,26.88-1.48,38.57-0.67c4.29-0.35,11.65-1.52,19.6-5.85
	c6.97-3.8,11.58-8.49,14.22-11.64c3.02-4.6,6.39-10.63,9.21-18.06C395.23,265.11,396.69,257.12,397.34,251z"/>
</svg>
